<svg xmlns:xlink="http://www.w3.org/1999/xlink" xmlns="http://www.w3.org/2000/svg" id="logo" viewBox="0 0 52 52" fill="#FFFFFF" width="48" height="48"><path d="M13.99 19.92C14.57 19.35 19.17 14.8 19.75 14.23C20.69 13.31 21.77 12.53 22.95 11.92C22.95 11.86 22.95 11.39 22.95 11.33C22.95 5.07 17.81 0 11.48 0C11.48 0 11.47 0 11.47 0C11.47 0 11.47 0 11.47 0C5.14 0 0 5.07 0 11.33C0 11.33 0 11.33 0 11.33C0 14.26 0 37.74 0 40.67C0 46.93 5.14 52 11.47 52C11.47 52 11.47 52 11.47 52C17.43 52 22.39 47.5 22.91 41.65C19.56 41.6 16.36 40.27 13.99 37.93C8.96 32.95 8.96 24.89 13.99 19.92Z" fill="#FFFFFF"></path><path d="M40.52 0C34.51 0 29.52 4.59 29.08 10.51C36.21 10.62 41.89 16.41 41.78 23.44C41.73 26.75 40.37 29.91 38 32.25C37.42 32.82 32.83 37.36 32.25 37.93C31.31 38.86 30.23 39.63 29.05 40.23C29.05 40.28 29.05 40.63 29.05 40.67C29.05 46.93 34.18 52 40.52 52C40.52 52 40.52 52 40.52 52C46.86 52 52 46.93 52 40.67C52 37.74 52 14.26 52 11.33C52 5.07 46.86 0 40.52 0C40.52 0 40.52 0 40.52 0C40.52 0 40.52 0 40.52 0Z" fill="#FFFFFF"></path><path d="M36.19 30.46C40.24 26.47 40.24 20.01 36.19 16.02C32.15 12.03 25.6 12.03 21.56 16.02C20.98 16.58 16.38 21.13 15.8 21.69C11.76 25.68 11.76 32.15 15.8 36.14C19.84 40.13 26.39 40.13 30.44 36.14C30.44 36.14 35.62 31.03 36.19 30.46Z" fill="#FFFFFF"></path></svg>